PathFileType	4	(X/Y/Z)	Run_400 01
DataRate	CameraRate	NumFrames	NumMarkers	Units	OrigDataRate	OrigDataStartFrame	OrigNumFrames
120	120	7	42	mm	120	1	128
Frame#	Time	LASI			RASI			LPSI			RPSI			RTH1			RTH2			RTH3			LTH1			LTH2			LTH3			RTB1			RTB2			RTB3			LTB1			LTB2			LTB3			RCAL			RTOE			RMT5			LCAL			LTOE			LMT5			LACR			RACR			CLAV			C7			RUA1			RUA2			RUA3			RLEL			RMEL			LUA1			LUA2			LUA3			LLEL			LMEL			RFAsuperior			RFAradius			RFAulna			LFAsuperior			LFAradius			LFAulna			
		X1	Y1	Z1	X2	Y2	Z2	X3	Y3	Z3	X4	Y4	Z4	X5	Y5	Z5	X6	Y6	Z6	X7	Y7	Z7	X8	Y8	Z8	X9	Y9	Z9	X10	Y10	Z10	X11	Y11	Z11	X12	Y12	Z12	X13	Y13	Z13	X14	Y14	Z14	X15	Y15	Z15	X16	Y16	Z16	X17	Y17	Z17	X18	Y18	Z18	X19	Y19	Z19	X20	Y20	Z20	X21	Y21	Z21	X22	Y22	Z22	X23	Y23	Z23	X24	Y24	Z24	X25	Y25	Z25	X26	Y26	Z26	X27	Y27	Z27	X28	Y28	Z28	X29	Y29	Z29	X30	Y30	Z30	X31	Y31	Z31	X32	Y32	Z32	X33	Y33	Z33	X34	Y34	Z34	X35	Y35	Z35	X36	Y36	Z36	X37	Y37	Z37	X38	Y38	Z38	X39	Y39	Z39	X40	Y40	Z40	X41	Y41	Z41	X42	Y42	Z42	

1	0.083333	764.982674	1024.869747	-498.85983	745.611836	1037.387677	-259.426978	597.574677	1062.100702	-421.03062	591.280859	1059.293285	-333.021027	762.734295	852.597416	-202.231468	861.49191	762.160455	-234.764716	838.205648	621.371865	-241.052878	694.002173	874.756088	-545.071361	708.601264	751.404229	-533.623606	601.701758	640.447933	-534.57553	953.8587209999999	443.153732	-295.687029	921.400927	371.779476	-244.565753	962.976543	264.521121	-313.711667	464.60739	456.939417	-466.965176	350.216555	478.772877	-514.1237190000001	272.82235	446.354221	-444.752177	880.09498	103.257783	-330.208012	1096.088825	148.356334	-327.599908	1068.405894	111.786567	-239.944606	153.833264	538.609098	-452.448845	136.396702	327.407937	-409.434966	89.864446	341.29718	-490.454021	787.988377	1477.632365	-529.8831	691.227698	1478.308883	-178.670838	817.770078	1437.56737	-299.611207	707.521532	1528.070908	-364.72391	625.240841	1417.999767	-108.15731	614.8683129999999	1348.868811	-91.462802	513.439072	1378.22233	-91.44729599999999	491.907052	1303.307499	-32.86777	459.650452	1282.355137	-111.749845	772.310907	1426.959685	-601.301223	704.632637	1379.186724	-628.53799	768.565128	1350.144213	-664.07268	750.80779	1258.378377	-734.894051	675.7315129999999	1216.46634	-699.771163	550.942462	1248.705396	-12.414805	677.9431939999999	1133.377449	-23.414657	619.733995	1095.624106	-23.402467	810.2862699999999	1246.981761	-695.625054	881.233429	1204.383067	-534.030623	887.221528	1150.706094	-571.490854	
2	0.091667	766.325427	1020.71599	-496.98841	744.547543	1032.756729	-258.989882	597.610415	1055.301461	-420.997844	589.646812	1052.475403	-332.589989	760.24751	847.303818	-202.031697	860.863928	759.587457	-234.657311	836.158502	616.588465	-241.881549	698.270034	869.48594	-543.7672659999999	714.86077	746.374537	-532.280143	611.529395	634.048915	-535.202099	948.990303	436.87648	-296.920716	916.056281	365.636682	-245.607042	957.205722	257.935821	-314.884404	472.786563	456.908928	-467.884913	359.988509	488.976952	-513.654886	281.10648	461.68617	-444.528321	872.908608	97.824804	-331.250015	1089.349455	139.869669	-331.14977	1061.478109	104.144138	-242.609319	168.68832	563.009578	-449.529804	139.221937	351.683408	-413.321372	93.923091	371.035742	-493.870792	786.345096	1472.555185	-529.032162	691.983827	1471.591512	-176.540444	817.896879	1432.011333	-298.751694	707.39091	1523.054208	-362.821152	627.266072	1410.304053	-104.939579	618.164389	1341.442094	-87.64532699999999	516.310148	1369.111348	-86.39577300000001	496.718189	1294.59731	-27.221671	463.232756	1272.282841	-105.332078	768.384129	1422.357388	-600.327866	698.85361	1375.387508	-625.8147300000001	762.119545	1346.524357	-663.479555	741.920712	1254.821055	-734.117023	666.894622	1214.585024	-697.9243279999999	557.136765	1241.596431	-7.209842	686.386114	1128.733338	-18.730961	628.7801909999999	1090.064651	-17.062711	801.819868	1240.923162	-696.122932	874.566203	1194.83674	-536.220298	877.833112	1141.312972	-573.712945	
3	0.1	767.518762	1015.793073	-495.220258	743.36652	1027.602316	-257.732379	597.6792840000001	1047.657269	-421.37345	588.331696	1045.122055	-332.773638	758.597489	842.2956349999999	-203.063588	861.148827	756.733439	-235.646147	833.746153	611.022354	-242.519053	702.381669	863.693502	-542.505298	722.3772719999999	740.633653	-530.584252	622.637106	626.763508	-535.974864	943.289483	429.187758	-298.675438	910.348475	358.427356	-247.063699	949.444633	250.065443	-316.773269	482.088202	456.477354	-468.53554	371.814395	498.025317	-513.296035	291.707791	475.857111	-444.143303	861.55935	94.58805099999999	-333.015508	1078.588018	127.23562	-335.841763	1050.073655	94.24355	-246.288248	185.843335	585.1507769999999	-446.651546	145.399743	374.362526	-417.6458	102.317542	398.787907	-497.749959	784.446681	1466.667436	-528.255229	692.6240790000001	1464.088664	-174.414203	818.061403	1425.853247	-298.070917	707.365216	1517.415116	-360.963633	629.384395	1401.553322	-101.718149	621.7515059999999	1332.903933	-83.74981699999999	519.4617030000001	1358.65162	-80.974885	502.044761	1284.53555	-21.184803	467.399279	1260.783059	-98.492262	764.114197	1416.985583	-599.378814	692.854048	1370.754242	-623.008696	755.300774	1342.010918	-662.641002	732.610617	1250.689945	-733.182349	657.734417	1212.036248	-695.78538	563.968173	1233.244016	-1.697515	695.58655	1123.257938	-14.302965	638.812545	1083.503451	-10.697518	792.77958	1234.414189	-696.44757	867.808191	1184.185785	-538.863479	868.395664	1131.091992	-576.8354880000001	
4	0.108333	768.556627	1010.145754	-494.135568	742.08881	1021.860656	-255.621062	597.788247	1039.199596	-422.069858	587.455603	1037.061721	-333.563059	757.843069	837.187229	-205.100684	860.8511140000001	751.800555	-237.789763	830.4882260000001	604.397082	-243.067227	706.481464	857.154738	-541.225511	731.229932	734.281016	-528.700415	634.7964459999999	618.712904	-536.774981	936.953209	420.173538	-301.351109	904.273726	349.999847	-249.635375	939.314492	240.967267	-319.864101	492.631115	455.735955	-468.7642	385.597315	505.478352	-513.088228	304.472235	488.508542	-443.788322	845.162566	94.007611	-335.258907	1062.909528	110.990575	-340.959369	1033.487532	83.374711	-250.449642	205.000363	604.756456	-444.172701	154.523949	395.02087	-422.221088	114.555638	423.879703	-501.826442	782.372735	1460.071868	-527.497351	693.1673510000001	1456.030384	-172.306772	818.280167	1419.139033	-297.678407	707.419658	1511.130111	-359.074569	631.663983	1391.866027	-98.621152	625.674119	1323.420858	-79.869883	522.929442	1347.011492	-75.379963	507.869738	1273.285526	-14.889804	472.274903	1248.012233	-91.446111	759.682836	1410.925616	-598.394928	686.886096	1365.472702	-620.108104	748.318895	1336.571532	-661.553533	723.017399	1246.119121	-732.096347	648.340864	1208.941891	-693.377281	571.4186120000001	1223.764971	4.036625	705.428228	1116.992603	-10.370464	649.757099	1076.038899	-4.584963	783.327632	1227.691368	-696.603448	860.955754	1172.571256	-541.984098	858.942105	1120.152921	-580.886522	
5	0.116667	769.418054	1003.828727	-493.681652	740.745099	1015.510717	-253.00212	597.667586	1029.787749	-422.982504	586.697029	1027.976704	-334.816775	757.369324	831.556314	-207.183939	859.073087	744.450185	-240.20318	826.681007	597.152431	-243.685257	710.809042	849.678843	-539.7780729999999	740.955752	727.507103	-526.891283	647.534385	610.071322	-537.4950700000001	930.0288420000001	410.49518	-305.261987	897.199034	340.852538	-253.786222	925.8471510000001	231.28749	-324.523584	504.594052	454.627379	-468.537646	401.126317	510.997389	-512.9952960000001	319.265605	499.347267	-443.599254	823.0146109999999	95.31898	-337.599833	1041.567764	94.018535	-345.511302	1011.213136	73.760903	-254.16759	225.967071	621.643867	-442.282575	166.397613	413.357319	-426.750133	130.168927	445.858279	-505.930336	780.243778	1452.922547	-526.762644	693.691292	1447.642294	-170.209055	818.692324	1411.78714	-297.549863	707.429199	1504.140686	-357.149045	634.232622	1381.274059	-95.71843800000001	630.004897	1313.138286	-76.088989	526.797491	1334.315649	-69.764303	514.2147	1261.007298	-8.470323	478.109808	1234.099639	-84.409691	755.1953130000001	1404.259812	-597.340281	681.09108	1359.71403	-617.087552	741.316413	1330.252434	-660.250585	713.254685	1241.262662	-730.860773	638.846216	1205.397581	-690.75735	579.478067	1213.223409	9.899395	715.9033470000001	1110.011106	-7.015239	661.5560390000001	1067.784049	1.03283	773.619381	1220.876773	-696.577072	854.022352	1160.229579	-545.602882	849.428732	1108.602419	-585.707554	
6	0.125	770.03472	996.901036	-493.169895	739.356444	1008.624095	-250.407928	596.869714	1019.395835	-424.056444	585.423324	1017.878597	-336.430394	756.139578	825.313802	-208.23126	856.056739	736.136845	-241.619832	823.254857	590.382341	-244.391522	715.584105	841.372722	-538.073042	750.731751	720.617167	-525.395627	660.327407	601.005431	-537.965425	922.216034	401.279441	-310.420904	888.302831	332.259816	-259.163486	908.320285	222.368456	-330.434462	518.201084	453.110062	-467.908942	418.153537	514.462088	-512.973777	335.99096	508.242387	-443.584972	795.479289	97.156356	-339.682918	1014.783836	80.22029999999999	-348.832347	983.650069	67.346428	-256.740317	248.574275	635.693013	-441.092109	180.99379	429.164553	-430.817124	148.741392	464.400926	-509.922401	778.174453	1445.446952	-526.129155	694.322426	1439.138453	-168.056299	819.53221	1403.667106	-297.553679	707.243871	1496.52581	-355.260548	637.2297170000001	1369.802157	-92.99215	634.834479	1302.125572	-72.516389	531.222458	1320.673358	-64.181766	521.187783	1247.8611	-2.07072	485.19352	1219.163418	-77.53843000000001	750.649367	1397.127362	-596.238942	675.484551	1353.605053	-613.91468	734.359639	1323.230945	-658.7674479999999	703.382778	1236.267011	-729.455493	629.391309	1201.474683	-687.968403	588.215014	1201.685728	15.727442	727.124206	1102.477477	-4.110343	674.199018	1058.885769	6.013211	763.7476	1213.927302	-696.380977	846.9962	1147.469719	-549.7086870000001	839.751063	1096.579935	-591.042451	
7	0.133333	770.25792	989.439313	-491.81553	737.895539	1001.411036	-248.188563	595.05873	1008.526348	-425.321263	583.090242	1007.564475	-338.391179	753.356526	818.897725	-207.857664	852.769533	729.069924	-241.468561	820.971465	585.171904	-245.00253	720.843491	832.78836	-536.193893	759.77393	714.077707	-524.355441	672.79395	591.741674	-537.880568	912.984686	393.618599	-316.252968	877.127385	325.758321	-264.503819	887.151062	215.704462	-336.377335	533.7032819999999	451.31142	-466.969023	436.487289	516.031329	-513.033416	354.566534	515.220343	-443.661763	764.216184	98.57853299999999	-341.32543	983.999413	71.976263	-350.859613	952.275187	64.576515	-258.138902	272.504781	646.858667	-440.738515	198.296867	442.227324	-434.033055	169.83674	479.184084	-513.645295	776.160344	1437.962825	-525.704279	695.17926	1430.746362	-165.735436	820.950792	1394.806185	-297.585886	706.820825	1488.664964	-353.46838	640.7249389999999	1357.649091	-90.379327	640.257793	1290.435051	-69.318084	536.413063	1306.263378	-58.603355	529.026982	1234.048171	4.131955	493.657072	1203.389074	-70.886026	745.962133	1389.790913	-595.165228	669.987222	1347.253105	-610.537482	727.458181	1315.891006	-657.138642	693.419955	1231.271484	-727.824752	620.08394	1197.286328	-684.986038	597.8554	1189.37278	21.193552	739.2314249999999	1094.662032	-1.497216	687.722563	1049.572718	10.310151	753.732769	1206.682461	-696.079467	839.813687	1134.61497	-554.2247149999999	829.789948	1084.312522	-596.636357	
